<?xml version="1.0" standalone="no"?>
<!DOCTYPE svg PUBLIC "-//W3C//DTD SVG 20010904//EN"
 "http://www.w3.org/TR/2001/REC-SVG-20010904/DTD/svg10.dtd">
<svg version="1.0" xmlns="http://www.w3.org/2000/svg"
 width="400.000000pt" height="400.000000pt" viewBox="0 0 400.000000 400.000000"
 preserveAspectRatio="xMidYMid meet">
<metadata>
Created by potrace 1.14, written by Peter Selinger 2001-2017
</metadata>
<g transform="translate(0.000000,400.000000) scale(0.100000,-0.100000)"
fill="#000000" stroke="none">
<path d="M0 2000 l0 -2000 2000 0 2000 0 0 2000 0 2000 -2000 0 -2000 0 0
-2000z m3288 1391 c43 -22 83 -63 106 -108 14 -29 16 -152 16 -1283 0 -1218
-1 -1252 -19 -1289 -24 -45 -81 -98 -119 -108 -35 -10 -2509 -10 -2544 0 -35
9 -94 61 -116 101 -16 29 -17 125 -17 1296 0 1397 -5 1290 62 1351 67 62 -32
58 1341 59 1214 0 1254 -1 1290 -19z"/>
<path d="M746 3254 c-14 -14 -16 -141 -16 -1254 0 -1113 2 -1240 16 -1254 14
-14 141 -16 1254 -16 1113 0 1240 2 1254 16 14 14 16 141 16 1254 0 1113 -2
1240 -16 1254 -14 14 -141 16 -1254 16 -1113 0 -1240 -2 -1254 -16z m1321
-1170 c54 -34 48 -149 -10 -184 -106 -65 -209 59 -139 168 26 40 98 48 149 16z"/>
</g>
</svg>
